<svg width="512" height="512" viewBox="0 0 100 100" xmlns="http://www.w3.org/2000/svg"><defs><radialGradient id="glowA" cx="50%" cy="46%" r="55%"><stop offset="0" stop-color="#3A2A1C"/><stop offset="1" stop-color="#1C1712"/></radialGradient><linearGradient id="oA" x1="50" y1="10" x2="50" y2="92" gradientUnits="userSpaceOnUse"><stop offset="0" stop-color="#FF7A2E"/><stop offset="1" stop-color="#FF5A1F"/></linearGradient><linearGradient id="iA" x1="50" y1="42" x2="50" y2="86" gradientUnits="userSpaceOnUse"><stop offset="0" stop-color="#FFE0B0"/><stop offset="1" stop-color="#FFA659"/></linearGradient></defs><rect x="0" y="0" width="100" height="100" rx="22" fill="#1C1712"/><circle cx="50" cy="46" r="42" fill="url(#glowA)"/><g transform="translate(19.000,19.310) scale(0.62)"><path d="M49,91 C 32,91 22,78 22,63 C 22,49 36,45 41,32 C 44,24 46,18 45,13 C 45,9 50,8 53,12 C 57,17 58,22 59,30 C 62,45 78,49 78,63 C 78,79 66,91 49,91 Z" fill="url(#oA)"/><path d="M50,85 C 42.5,85 37.5,78 37.5,70 C 37.5,62 44,59 46,52 C 47,47.5 48.5,45.5 50,44 C 51.5,45.5 53,47.5 54,52 C 56,59 62.5,62 62.5,70 C 62.5,78 57.5,85 50,85 Z" fill="url(#iA)"/></g></svg>