<svg width="421.4" height="318.7" viewBox="0 0 421.4 318.7" xmlns="http://www.w3.org/2000/svg"><defs><linearGradient id="oS" x1="50" y1="10" x2="50" y2="92" gradientUnits="userSpaceOnUse"><stop offset="0" stop-color="#F5620A"/><stop offset="1" stop-color="#D6410B"/></linearGradient><linearGradient id="iS" x1="50" y1="42" x2="50" y2="86" gradientUnits="userSpaceOnUse"><stop offset="0" stop-color="#FFD79A"/><stop offset="1" stop-color="#FF9A45"/></linearGradient></defs><g transform="translate(124.723,14.240) scale(1.72)"><path d="M49,91 C 32,91 22,78 22,63 C 22,49 36,45 41,32 C 44,24 46,18 45,13 C 45,9 50,8 53,12 C 57,17 58,22 59,30 C 62,45 78,49 78,63 C 78,79 66,91 49,91 Z" fill="url(#oS)"/><path d="M50,85 C 42.5,85 37.5,78 37.5,70 C 37.5,62 44,59 46,52 C 47,47.5 48.5,45.5 50,44 C 51.5,45.5 53,47.5 54,52 C 56,59 62.5,62 62.5,70 C 62.5,78 57.5,85 50,85 Z" fill="url(#iS)"/></g><g transform="translate(28.000,293.534) scale(0.061183,-0.061183)" fill="#211A15"><path transform="translate(0,0)" d="M957.0269601307809 584.2385873924941Q957.0269601307809 534.6648145150393 928.362685225904 508.3513401020318Q899.698410321027 482.03786568902433 845.2609046623111 482.03786568902433H224.48987722583115V553.0768958795816H662.6093964558095Q713.0960593782365 553.0768958795816 713.0960593782365 599.1648058462888Q713.0960593782365 725.3163439258933 660.438910363242 793.9089518273249Q607.7817613482475 862.5015597287565 522.3260401692241 862.5015597287565Q454.2272650487721 862.5015597287565 402.20140544883907 823.2667637150735Q350.17554584890604 784.0319677013904 320.80866040848196 710.5592641346157Q291.44177496805787 637.0865605678409 291.44177496805787 534.4733821172267Q291.44177496805787 341.5184921119362 382.86979084275663 242.46200051065534Q474.2978067174554 143.40550890937448 622.741470945999 143.40550890937448Q717.3422452546656 143.40550890937448 786.4872918650508 185.6418331125751Q855.632338475436 227.87815731577575 887.0853747520596 296.3136621043086Q900.8999403119087 312.80876156128943 910.0485246507451 319.1979961488396Q919.1971089895815 325.58723073638976 929.4316288046539 325.3361850436777Q942.9551257994026 325.21066219732165 950.00143840909 313.8739938158542Q957.0477510187775 302.53732543438673 956.6488028150052 284.2209858074784Q952.0235362518579 201.30018175207078 898.7218731082976 131.15136731322855Q845.4202099647373 61.00255287438631 754.658641778864 18.764808959327638Q663.8970735929906 -23.472934955731034 546.0695913247764 -23.472934955731034Q404.49365735799074 -23.472934955731034 297.3487393371761 35.544990073889494Q190.20382131636143 94.56291510351002 130.50211319886148 201.0628479970619Q70.80040508136153 307.5627808906138 70.80040508136153 449.3589642662555Q70.80040508136153 595.8122966568917 129.2569316988811 709.751620547846Q187.71345831640065 823.6909444388002 296.2290040673688 889.2406138209626Q404.74454981833696 954.790283203125 554.2237169146538 954.790283203125Q677.9871346913278 954.790283203125 768.387532480061 907.0360393971205Q858.7879302687943 859.281795591116 907.9074451997876 775.7396103404462Q957.0269601307809 692.1974250897765 957.0269601307809 584.2385873924941Z"/><path transform="translate(1027,0)" d="M432.2508131209761 893.5382020268589V154.7050287295133Q432.2508131209761 124.03925660066307 441.5613599959761 109.56939659547061Q450.8719068709761 95.09953659027815 469.6724483501166 88.89927805773914L509.7179553247988 78.49400462023914Q540.4996332153678 66.02374460920691 540.4996332153678 40.34766968153417Q540.4996332153678 0 491.70206497982144 0H126.37536628171802Q102.04184493608773 0 89.56854547094554 10.509344772435725Q77.09524600580335 21.01868954487145 77.09524600580335 39.17605501227081Q77.09524600580335 53.80762689374387 85.8626279514283 63.74855125602335Q94.63000989705324 73.68947561830282 112.10981381498277 80.29393137805164L154.09221043810248 90.51342189498246Q172.8569628931582 96.66473832726479 182.2782957404852 110.53316709026694Q191.69962858781219 124.4015958532691 191.69962858781219 154.06951044499874V731.368563156575Q191.69962858781219 756.5843535959721 183.78383156470954 767.5400148322806Q175.8680345416069 778.4956760685891 158.9916811659932 781.4846044201404L99.53533441200852 784.6859391629696Q83.08210288733244 788.8851214852184 75.05709871090949 797.4973531560972Q67.03209453448653 806.1095848269761 67.03209453448653 819.5309027377516Q67.03209453448653 834.8380157761276 76.7224857704714 845.0579989440739Q86.41287700645626 855.2779821120203 110.1705764979124 863.7132730260491L288.87247191369534 925.8514762129635Q320.22158620133996 937.5512732565403 340.7803646326065 943.1262957435101Q361.33914306387305 948.70131823048 379.15789139457047 948.70131823048Q405.0762048996985 948.70131823048 418.6635090103373 933.6487624300644Q432.2508131209761 918.5962066296488 432.2508131209761 893.5382020268589ZM404.14149883389473 671.5353617072105 361.76720568165183 716.5301139727235 405.22428145445883 755.850031606853Q523.1014525722712 864.5691727474332 613.3184977965429 909.7481483854353Q703.5355430208147 954.9271240234375 784.9969448391348 954.9271240234375Q908.2785595096648 954.9271240234375 983.7551280809566 876.3185430895537Q1059.2316966522485 797.7099621556699 1059.2316966522485 662.5061676315963V156.5766556058079Q1059.2316966522485 124.68955785781145 1069.2422557342798 109.84310377482325Q1079.252814816311 94.99664969183505 1098.8675733748823 88.37796464562416L1135.7354889269918 78.2011009529233Q1165.931359482929 65.6166360694915 1165.931359482929 40.34766968153417Q1165.931359482929 0 1117.4911888372153 0H757.3994913585484Q708.7161279954016 0 708.7161279954016 40.34766968153417Q708.7161279954016 66.02374460920691 739.3191070910543 78.49400462023914L780.3304549381137 88.78507318533957Q800.8091415259987 95.15663902647793 809.916134131141 110.61202341970056Q819.0231267362833 126.0674078129232 819.0231267362833 157.83290920220315V620.2887152377516Q819.0231267362833 711.9780441075563 774.8360989885405 758.3782016420737Q730.6490712407976 804.778359176591 656.3123424686491 804.778359176591Q608.6754916906357 804.778359176591 556.1470125578344 781.6407034080476Q503.6185334250331 758.5030476395041 445.1507964152843 707.4727639220655ZM1030.1045339517295 673.6565797124058 987.754711849615 718.6268609277904 1029.8894612845033 757.4107332546264Q1142.4446545448154 861.7475442662835 1227.723732817918 908.3373341448605Q1313.0028110910207 954.9271240234375 1392.0281120259315 954.9271240234375Q1509.482090299949 954.9271240234375 1575.1720854165033 877.6356981126592Q1640.8620805330575 800.3442722018808 1655.9231094568968 666.2972695436329L1715.9316802043468 156.80506535060704Q1719.5603606887162 125.5976815726608 1728.170772193931 110.76858389656991Q1736.781183699146 95.93948622047901 1756.0959544647485 89.76369873806834L1793.1354846861213 80.17972650565207Q1810.5337151177227 73.35685643926263 1819.2399144591764 63.61079288460314Q1827.94611380063 53.86472932994366 1827.94611380063 39.17605501227081Q1827.94611380063 20.961587108671665 1815.7733402336016 10.480793554335833Q1803.6005666665733 0 1778.6659935247153 0H1410.9305563904345Q1362.2471930272877 0 1362.2471930272877 40.34766968153417Q1362.2471930272877 65.885068686679 1392.8746431730688 78.49400462023914L1433.760468173772 88.78507318533957Q1454.2391547616571 95.09953659027815 1465.160487608984 110.59163253754377Q1476.081820456311 126.0837284848094 1472.4531399719417 157.81660844571888L1417.0297618377954 622.774701114744Q1405.9921377114952 714.0945455711335 1369.8852377515286 759.4364523738623Q1333.778337791562 804.778359176591 1264.4039948508143 804.778359176591Q1221.5502475500107 804.778359176591 1173.8069838397205 781.3747366433963Q1126.0637201294303 757.9711141102016 1069.7915051952004 709.0579366199672Z"/><path transform="translate(2870,0)" d="M389.262018982321 1425.4616477508098V107.57489798031747L282.93153399042785 10.649902988225222Q249.27006978355348 -4.567578382790089 229.77439563255757 -11.52520784176886Q210.27872148156166 -18.482837300747633 191.2976361475885 -18.482837300747633Q172.0483433175832 -18.482837300747633 160.11630766559392 -7.02029216568917Q148.18427201360464 4.442252969369292 148.18427201360464 27.27760941721499L148.20874306373298 1263.4062137529254Q148.20874306373298 1288.5649017561227 140.26439482253045 1299.4349093381315Q132.32004658132792 1310.3049169201404 115.44369320571423 1313.2938452716917L56.27285863272846 1316.4951800145209Q39.64831979945302 1320.5688394904137 31.65186684112996 1329.2438325844705Q23.655413882806897 1337.9188256785274 23.655413882806897 1351.3972460255027Q23.655413882806897 1366.7614615000784 33.34580511879176 1376.924342231825Q43.03619635477662 1387.0872229635715 66.6796909738332 1395.5225138776004L245.82657533884048 1457.603614628315Q278.225707937032 1469.5963153392076 298.4344802647829 1475.0534372106194Q318.6432525925338 1480.5105590820312 334.99748258665204 1480.5105590820312Q361.7374046575278 1480.5105590820312 375.4997118199244 1465.5151057178155Q389.262018982321 1450.5196523535997 389.262018982321 1425.4616477508098ZM339.057588532567 653.9304150883108 302.54689613357186 708.4707976877689Q379.69645841419697 825.8654600698501 478.8894576849416 890.2080077771097Q578.0824569556862 954.5505554843694 696.4922096710652 954.5505554843694Q813.5070735942572 954.5505554843694 904.9268009914085 895.205737369135Q996.3465283885598 835.8609192539006 1048.7045045588166 730.8741089189425Q1101.0624807290733 625.8872985839844 1101.0624807290733 488.42252396419644Q1101.0624807290733 331.82529650069773 1039.430136111565 216.819669123739Q977.7977914940566 101.81404174678028 872.6251322245225 39.107791972346604Q767.4524729549885 -23.59845780208707 636.77338584885 -23.59845780208707Q520.0111053176224 -23.59845780208707 429.6339430650696 32.64703105855733Q339.2567808125168 88.89251991920173 283.33161954954267 191.6359779816121L339.3026375565678 253.0263177920133Q386.7678216919303 167.48910407721996 452.2933224057779 124.18668702058494Q517.8188231196254 80.88426996394992 593.8431088794023 80.88426996394992Q666.5837275180966 80.88426996394992 724.4678611392155 122.87862093467265Q782.3519947603345 164.8729719053954 815.9282010393217 249.79803534783423Q849.504407318309 334.72309879027307 849.504407318309 462.45244924351573Q849.504407318309 584.2975634727627 817.0687170429155 665.7997102700174Q784.6330267675221 747.3018570672721 728.3786292811856 788.5047600269318Q672.124231794849 829.7076629865915 599.8702137544751 829.7076629865915Q524.8892925065011 829.7076629865915 458.78035268653184 785.7390233622864Q392.6714128665626 741.7703837379813 339.057588532567 653.9304150883108Z"/><path transform="translate(4042,0)" d="M957.0269601307809 584.2385873924941Q957.0269601307809 534.6648145150393 928.362685225904 508.3513401020318Q899.698410321027 482.03786568902433 845.2609046623111 482.03786568902433H224.48987722583115V553.0768958795816H662.6093964558095Q713.0960593782365 553.0768958795816 713.0960593782365 599.1648058462888Q713.0960593782365 725.3163439258933 660.438910363242 793.9089518273249Q607.7817613482475 862.5015597287565 522.3260401692241 862.5015597287565Q454.2272650487721 862.5015597287565 402.20140544883907 823.2667637150735Q350.17554584890604 784.0319677013904 320.80866040848196 710.5592641346157Q291.44177496805787 637.0865605678409 291.44177496805787 534.4733821172267Q291.44177496805787 341.5184921119362 382.86979084275663 242.46200051065534Q474.2978067174554 143.40550890937448 622.741470945999 143.40550890937448Q717.3422452546656 143.40550890937448 786.4872918650508 185.6418331125751Q855.632338475436 227.87815731577575 887.0853747520596 296.3136621043086Q900.8999403119087 312.80876156128943 910.0485246507451 319.1979961488396Q919.1971089895815 325.58723073638976 929.4316288046539 325.3361850436777Q942.9551257994026 325.21066219732165 950.00143840909 313.8739938158542Q957.0477510187775 302.53732543438673 956.6488028150052 284.2209858074784Q952.0235362518579 201.30018175207078 898.7218731082976 131.15136731322855Q845.4202099647373 61.00255287438631 754.658641778864 18.764808959327638Q663.8970735929906 -23.472934955731034 546.0695913247764 -23.472934955731034Q404.49365735799074 -23.472934955731034 297.3487393371761 35.544990073889494Q190.20382131636143 94.56291510351002 130.50211319886148 201.0628479970619Q70.80040508136153 307.5627808906138 70.80040508136153 449.3589642662555Q70.80040508136153 595.8122966568917 129.2569316988811 709.751620547846Q187.71345831640065 823.6909444388002 296.2290040673688 889.2406138209626Q404.74454981833696 954.790283203125 554.2237169146538 954.790283203125Q677.9871346913278 954.790283203125 768.387532480061 907.0360393971205Q858.7879302687943 859.281795591116 907.9074451997876 775.7396103404462Q957.0269601307809 692.1974250897765 957.0269601307809 584.2385873924941Z"/><path transform="translate(5069,0)" d="M396.43099853768945 520.709614964202Q396.43099853768945 662.81577161327 437.5315782427788 759.6162609225139Q478.6321579478681 856.4167502317578 545.2893325015903 905.6719371275976Q611.9465070553124 954.9271240234375 688.4744530618191 954.9271240234375Q777.736784670502 954.9271240234375 827.3886026190594 903.2053629020229Q877.0404205676168 851.4836017806083 877.0404205676168 757.8169387318194Q877.0404205676168 680.228937856853 844.371169148013 641.5322884935886Q811.7019177284092 602.8356391303241 759.4918490480632 602.8356391303241Q707.18466501683 602.8356391303241 679.3793416265398 630.9300423031673Q651.5740182362497 659.0244454760104 651.3456084914505 709.3024220000952L651.231403619051 743.7519521582872Q650.8813975155354 776.413273986429 635.6306031271815 791.9453977849334Q620.3798087388277 807.4775215834379 588.5141897778958 807.4775215834379Q549.4238923117518 807.4775215834379 513.3656831476837 776.2219807803631Q477.30747398361564 744.9664399772882 454.45967744942755 682.1619165986776Q431.61188091523945 619.357393220067 431.61188091523945 523.9225140064955ZM419.5841500721872 891.1672509070486 431.61188091523945 654.1366207841784V155.3902579639107Q431.61188091523945 127.64000103622675 443.14399973489344 112.88754016254097Q454.67611855454743 98.1350792888552 481.9785972908139 94.01348293013871L567.9057975728065 81.75844971463084Q589.9429502524436 78.54396189562976 600.4131176183 67.90147702489048Q610.8832849841565 57.2589921541512 610.8832849841565 39.46895867958665Q610.8832849841565 21.010529208928347 597.9619365558028 10.505264604464173Q585.0405881274492 0 560.5368356835097 0H126.66087846271694Q102.27025468088686 0 89.73985277954489 10.537895990535617Q77.20945087820292 21.075791981071234 77.20945087820292 39.23315744847059Q77.20945087820292 53.92183176614344 86.03393526002765 63.82854592334479Q94.85841964185238 73.73526008054614 112.50953086838126 80.46523868665099L154.20641531050205 90.51342189498246Q172.97116776555777 96.27078286372125 182.39250061288476 110.33618935849518Q191.81383346021175 124.4015958532691 191.81383346021175 154.06951044499874V730.7679728493094Q191.81383346021175 755.9837632887065 183.8980364371091 766.939424525015Q175.98223941400647 777.8950857613236 159.10588603839278 780.8840141128749L99.64953928440809 784.0853488557041Q83.19630775973201 788.1590083315969 75.17130358330905 796.8340014256537Q67.1462994068861 805.5089945197105 67.1462994068861 818.9303124304861Q67.1462994068861 834.237425468862 76.99537800159305 844.6160959955305Q86.8444565963 854.9947665221989 110.28478137031198 863.1126827187836L287.6586819514632 923.6209140475839Q323.742499159649 937.1323852539062 343.55680843628943 942.6313395611942Q363.37111771292984 948.1302938684821 375.7464048359543 948.1302938684821Q395.3875206243247 948.1302938684821 405.9356938749552 935.0794705674052Q416.4838671255857 922.0286472663283 419.5841500721872 891.1672509070486Z"/></g></svg>